<svg width="107" height="92" viewBox="0 0 107 92" fill="none" xmlns="http://www.w3.org/2000/svg">
<path fill-rule="evenodd" clip-rule="evenodd" d="M86.3864 2.41257C85.4829 2.02079 84.5438 1.69088 83.5689 1.42282C82.5941 1.13414 81.6074 0.886694 80.6089 0.680494C79.5865 0.494914 78.5404 0.350579 77.4705 0.247479C76.4243 0.123759 75.3544 0.0515877 74.2607 0.0309677C73.167 -0.0102723 72.0496 -0.0102723 70.9083 0.0309677C69.7909 0.0722077 68.6496 0.154678 67.4846 0.278398C66.3434 0.402118 65.1784 0.556769 63.9896 0.742349C62.8246 0.927929 61.6477 1.14445 60.4589 1.39189C59.2701 1.63933 58.0813 1.9177 56.8925 2.227C55.6799 2.51568 54.4793 2.8456 53.2905 3.21676C52.0779 3.58792 50.8772 3.9797 49.6884 4.3921C48.4996 4.8045 47.3109 5.23752 46.1221 5.69116C44.9333 6.1448 43.7564 6.62936 42.5914 7.14486C41.4026 7.63974 40.2376 8.16556 39.0963 8.7223C37.9551 9.25842 36.8138 9.81516 35.6726 10.3925C34.5551 10.9699 33.4496 11.5575 32.3559 12.1555C31.2622 12.7741 30.1804 13.403 29.1105 14.0422C28.0644 14.6815 27.0301 15.331 26.0077 15.9908C25.0092 16.6507 24.0225 17.3208 23.0477 18.0013C22.0729 18.6817 21.1218 19.3828 20.1946 20.1045C19.2673 20.8056 18.3638 21.5273 17.4841 22.2696C16.6044 22.9913 15.7604 23.7337 14.952 24.4966C14.1199 25.2595 13.3234 26.0225 12.5625 26.7854C11.8017 27.5484 11.0647 28.3319 10.3514 29.1361C9.63811 29.9197 8.9605 30.7135 8.31856 31.5177C7.67661 32.3425 7.07033 33.157 6.49971 33.9612C5.92909 34.786 5.39413 35.6211 4.89484 36.4665C4.37177 37.3119 3.89626 38.1573 3.46829 39.0028C3.04033 39.8482 2.64803 40.7039 2.29139 41.57C1.93476 42.436 1.62567 43.302 1.36414 44.1681C1.07883 45.0341 0.841069 45.9105 0.650862 46.7971C0.460656 47.6838 0.306113 48.5704 0.187234 49.4571C0.0921312 50.3438 0.0326917 51.2304 0.00891593 52.1171C-0.0148599 53.0244 0.00891592 53.9213 0.0802433 54.808C0.151571 55.6947 0.27045 56.5916 0.43688 57.4989C0.603311 58.3856 0.805405 59.2722 1.04316 60.1589C1.28092 61.0662 1.55434 61.9528 1.86343 62.8189C2.17251 63.7055 2.51726 64.5819 2.89768 65.4479C3.27809 66.314 3.70605 67.1697 4.18157 68.0151C4.63331 68.8605 5.12071 69.6956 5.64378 70.5204C6.14307 71.3452 6.68991 72.1597 7.28431 72.9639C7.85493 73.7681 8.46121 74.5516 9.10316 75.3146C9.7451 76.0775 10.4108 76.8302 11.1003 77.5725C11.7898 78.2942 12.5031 79.0056 13.2401 79.7066C14.001 80.3871 14.7737 81.0573 15.5583 81.7171C16.3429 82.3563 17.1513 82.9749 17.9834 83.5729C18.8156 84.1709 19.6596 84.7482 20.5155 85.305C21.3952 85.8617 22.2868 86.3875 23.1903 86.8824C24.07 87.3567 24.9854 87.8103 25.9364 88.2433C26.8637 88.6763 27.8028 89.0784 28.7539 89.4496C29.7049 89.8208 30.6797 90.161 31.6783 90.4703C32.6531 90.7796 33.6398 91.0476 34.6384 91.2745C35.6369 91.5219 36.6474 91.7384 37.6698 91.924C38.6684 92.1096 39.6907 92.2642 40.7369 92.3879C41.7592 92.5117 42.7935 92.6045 43.8396 92.6663C44.862 92.7282 45.8962 92.7694 46.9423 92.79C47.9885 92.79 49.0346 92.7694 50.0807 92.7282C51.1269 92.6869 52.1849 92.6251 53.2548 92.5426C54.3009 92.4395 55.3352 92.3158 56.3576 92.1714C57.4037 92.0271 58.4498 91.8518 59.496 91.6456C60.5183 91.46 61.5526 91.2435 62.5987 90.9961C63.6211 90.7487 64.6315 90.4806 65.6301 90.1919C66.6525 89.8826 67.6629 89.563 68.6615 89.2331C69.6363 88.9032 70.6111 88.5423 71.5859 88.1505C72.5608 87.7794 73.5237 87.3773 74.4747 86.9443C75.4257 86.5319 76.3649 86.0885 77.2921 85.6143C78.1956 85.1606 79.0991 84.6761 80.0026 84.1606C80.8823 83.6657 81.7501 83.1502 82.606 82.6141C83.4857 82.0779 84.3298 81.5109 85.1382 80.9129C85.9703 80.3356 86.7787 79.7479 87.5633 79.1499C88.3479 78.5313 89.1206 77.8921 89.8814 77.2322C90.6185 76.5724 91.3436 75.9023 92.0569 75.2218C92.7702 74.5413 93.4597 73.8403 94.1254 73.1186C94.7911 72.3969 95.4331 71.6545 96.0513 70.8916C96.6694 70.1493 97.2638 69.376 97.8344 68.5718C98.4288 67.7883 98.9875 66.9944 99.5106 66.1902C100.034 65.3654 100.533 64.5303 101.009 63.6849C101.484 62.8189 101.936 61.9528 102.364 61.0868C102.792 60.2001 103.184 59.3032 103.541 58.3959C103.921 57.4886 104.266 56.5607 104.575 55.6122C104.884 54.6843 105.169 53.7358 105.431 52.7666C105.669 51.7975 105.894 50.818 106.108 49.8283C106.299 48.8385 106.453 47.8384 106.572 46.8281C106.715 45.7971 106.822 44.7661 106.893 43.7351C106.964 42.7041 107 41.6627 107 40.6111C107 39.5595 106.976 38.5079 106.929 37.4563C106.857 36.384 106.762 35.3221 106.643 34.2705C106.524 33.2189 106.382 32.1672 106.215 31.1156C106.025 30.064 105.811 29.0227 105.573 27.9917C105.336 26.9607 105.062 25.94 104.753 24.9296C104.444 23.9192 104.111 22.9295 103.755 21.9603C103.374 20.9912 102.97 20.0324 102.542 19.0838C102.114 18.1353 101.65 17.2177 101.151 16.3311C100.676 15.4444 100.164 14.5784 99.6176 13.733C99.047 12.8875 98.4645 12.073 97.8701 11.2895C97.2519 10.5059 96.61 9.7533 95.9442 9.0316C95.2547 8.33052 94.5415 7.66037 93.8044 7.02115C93.0912 6.38193 92.3303 5.77364 91.522 5.19628C90.7374 4.63954 89.9171 4.13434 89.0612 3.6807C88.2052 3.20644 87.3136 2.78373 86.3864 2.41257Z" fill="#F6ABAD"/>
<path d="M44.56 54.415C45.4667 53.695 45.88 53.3617 45.8 53.415C48.4133 51.255 50.4667 49.4817 51.96 48.095C53.48 46.7084 54.76 45.255 55.8 43.735C56.84 42.215 57.36 40.735 57.36 39.295C57.36 38.2017 57.1067 37.3484 56.6 36.735C56.0933 36.1217 55.3333 35.815 54.32 35.815C53.3067 35.815 52.5067 36.2017 51.92 36.975C51.36 37.7217 51.08 38.7884 51.08 40.175H44.48C44.5333 37.9084 45.0133 36.015 45.92 34.495C46.8533 32.975 48.0667 31.855 49.56 31.135C51.08 30.415 52.76 30.055 54.6 30.055C57.7733 30.055 60.16 30.8684 61.76 32.495C63.3867 34.1217 64.2 36.2417 64.2 38.855C64.2 41.7084 63.2267 44.3617 61.28 46.815C59.3333 49.2417 56.8533 51.615 53.84 53.935H64.64V59.495H44.56V54.415Z" fill="#1C2E44"/>
</svg>
